ply
format ascii 1.0
comment Created by Blender 2.91.2 - www.blender.org
element vertex 192
property float x
property float y
property float z
property float nx
property float ny
property float nz
element face 88
property list uchar uint vertex_indices
end_header
1.302593 0.214861 -0.391117 0.000000 0.000000 -1.000000
1.859627 -1.725551 -0.391117 0.000000 0.000000 -1.000000
1.302593 -1.725551 -0.391117 0.000000 0.000000 -1.000000
1.190003 0.214861 0.278507 -1.000000 0.000000 0.000000
1.190003 -1.725551 -0.278527 -1.000000 0.000000 0.000000
1.190003 -1.725551 0.278507 -1.000000 0.000000 0.000000
1.859627 0.327451 0.278507 -0.000000 1.000000 0.000000
1.302593 0.327451 -0.278527 -0.000000 1.000000 0.000000
1.302593 0.327451 0.278507 -0.000000 1.000000 0.000000
1.972218 0.214861 -0.278527 1.000000 -0.000000 0.000000
1.972218 -1.725551 0.278507 1.000000 -0.000000 0.000000
1.972218 -1.725551 -0.278527 1.000000 -0.000000 0.000000
1.859627 0.214861 0.391098 0.000000 -0.000000 1.000000
1.302593 -1.725551 0.391098 0.000000 -0.000000 1.000000
1.859627 -1.725551 0.391098 0.000000 -0.000000 1.000000
1.859627 -1.838142 -0.278527 0.577350 -0.577350 -0.577350
1.859627 -1.725551 -0.391117 0.577350 -0.577350 -0.577350
1.972218 -1.725551 -0.278527 0.577350 -0.577350 -0.577350
1.859627 0.214861 -0.391117 0.577350 0.577350 -0.577350
1.859627 0.327451 -0.278527 0.577350 0.577350 -0.577350
1.972218 0.214861 -0.278527 0.577350 0.577350 -0.577350
1.859627 -1.838142 0.278507 0.577350 -0.577350 0.577350
1.972218 -1.725551 0.278507 0.577350 -0.577350 0.577350
1.859627 -1.725551 0.391098 0.577350 -0.577350 0.577350
1.859627 0.327451 0.278507 0.577350 0.577350 0.577350
1.859627 0.214861 0.391098 0.577350 0.577350 0.577350
1.972218 0.214861 0.278507 0.577350 0.577350 0.577350
1.302593 -1.838142 -0.278527 -0.577350 -0.577350 -0.577350
1.190003 -1.725551 -0.278527 -0.577350 -0.577350 -0.577350
1.302593 -1.725551 -0.391117 -0.577350 -0.577350 -0.577350
1.302593 0.327451 -0.278527 -0.577350 0.577350 -0.577350
1.302593 0.214861 -0.391117 -0.577350 0.577350 -0.577350
1.190003 0.214861 -0.278527 -0.577350 0.577350 -0.577350
1.302593 -1.838142 0.278507 -0.577350 -0.577350 0.577350
1.302593 -1.725551 0.391098 -0.577350 -0.577350 0.577350
1.190003 -1.725551 0.278507 -0.577350 -0.577350 0.577350
1.302593 0.327451 0.278507 -0.577350 0.577350 0.577350
1.190003 0.214861 0.278507 -0.577350 0.577350 0.577350
1.302593 0.214861 0.391098 -0.577350 0.577350 0.577350
1.859627 -1.838142 -0.278527 0.707107 -0.707107 0.000000
1.972218 -1.725551 0.278507 0.707107 -0.707107 0.000000
1.859627 -1.838142 0.278507 0.707107 -0.707107 0.000000
1.859627 0.214861 -0.391117 0.707107 0.000000 -0.707107
1.972218 -1.725551 -0.278527 0.707107 0.000000 -0.707107
1.859627 -1.725551 -0.391117 0.707107 0.000000 -0.707107
1.859627 0.327451 0.278507 0.707107 0.707107 0.000000
1.972218 0.214861 -0.278527 0.707107 0.707107 0.000000
1.859627 0.327451 -0.278527 0.707107 0.707107 0.000000
1.859627 -1.725551 0.391098 0.707107 0.000000 0.707107
1.972218 0.214861 0.278507 0.707107 0.000000 0.707107
1.859627 0.214861 0.391098 0.707107 0.000000 0.707107
1.859627 -1.838142 0.278507 0.000000 -0.707107 0.707107
1.302593 -1.725551 0.391098 0.000000 -0.707107 0.707107
1.302593 -1.838142 0.278507 0.000000 -0.707107 0.707107
1.302593 0.327451 0.278507 0.000000 0.707107 0.707107
1.859627 0.214861 0.391098 0.000000 0.707107 0.707107
1.859627 0.327451 0.278507 0.000000 0.707107 0.707107
1.190003 -1.725551 0.278507 -0.707107 0.000000 0.707107
1.302593 0.214861 0.391098 -0.707107 0.000000 0.707107
1.190003 0.214861 0.278507 -0.707107 0.000000 0.707107
1.302593 -1.838142 0.278507 -0.707107 -0.707107 0.000000
1.190003 -1.725551 -0.278527 -0.707107 -0.707107 0.000000
1.302593 -1.838142 -0.278527 -0.707107 -0.707107 0.000000
1.302593 0.327451 -0.278527 -0.707107 0.707107 0.000000
1.190003 0.214861 0.278507 -0.707107 0.707107 0.000000
1.302593 0.327451 0.278507 -0.707107 0.707107 0.000000
1.302593 -1.725551 -0.391117 -0.707107 0.000000 -0.707107
1.190003 0.214861 -0.278527 -0.707107 0.000000 -0.707107
1.302593 0.214861 -0.391117 -0.707107 0.000000 -0.707107
1.302593 -1.838142 -0.278527 0.000000 -0.707107 -0.707107
1.859627 -1.725551 -0.391117 0.000000 -0.707107 -0.707107
1.859627 -1.838142 -0.278527 0.000000 -0.707107 -0.707107
1.859627 0.327451 -0.278527 0.000000 0.707107 -0.707107
1.302593 0.214861 -0.391117 0.000000 0.707107 -0.707107
1.302593 0.327451 -0.278527 0.000000 0.707107 -0.707107
1.302593 -1.838142 0.278507 -0.000000 -1.000000 -0.000000
1.859627 -1.838142 -0.278527 -0.000000 -1.000000 -0.000000
1.859627 -1.838142 0.278507 -0.000000 -1.000000 -0.000000
-1.881019 0.214860 -0.389724 0.000000 0.000000 -1.000000
-1.323985 -1.725551 -0.389724 0.000000 0.000000 -1.000000
-1.881019 -1.725551 -0.389724 0.000000 0.000000 -1.000000
-1.993610 0.214860 0.279901 -1.000000 0.000000 0.000000
-1.993610 -1.725551 -0.277133 -1.000000 0.000000 0.000000
-1.993610 -1.725551 0.279901 -1.000000 0.000000 0.000000
-1.323985 0.327451 0.279901 -0.000000 1.000000 0.000000
-1.881019 0.327451 -0.277133 -0.000000 1.000000 0.000000
-1.881019 0.327451 0.279901 -0.000000 1.000000 0.000000
-1.211395 0.214860 -0.277133 1.000000 -0.000000 0.000000
-1.211395 -1.725551 0.279901 1.000000 -0.000000 0.000000
-1.211395 -1.725551 -0.277133 1.000000 -0.000000 0.000000
-1.323985 0.214860 0.392491 0.000000 -0.000000 1.000000
-1.881019 -1.725551 0.392491 0.000000 -0.000000 1.000000
-1.323985 -1.725551 0.392491 0.000000 -0.000000 1.000000
-1.323985 -1.838142 -0.277133 0.577350 -0.577350 -0.577350
-1.323985 -1.725551 -0.389724 0.577350 -0.577350 -0.577350
-1.211395 -1.725551 -0.277133 0.577350 -0.577350 -0.577350
-1.323985 0.214860 -0.389724 0.577351 0.577350 -0.577350
-1.323985 0.327451 -0.277133 0.577351 0.577350 -0.577350
-1.211395 0.214860 -0.277133 0.577351 0.577350 -0.577350
-1.323985 -1.838142 0.279901 0.577350 -0.577350 0.577350
-1.211395 -1.725551 0.279901 0.577350 -0.577350 0.577350
-1.323985 -1.725551 0.392491 0.577350 -0.577350 0.577350
-1.323985 0.327451 0.279901 0.577351 0.577350 0.577350
-1.323985 0.214860 0.392491 0.577351 0.577350 0.577350
-1.211395 0.214860 0.279901 0.577351 0.577350 0.577350
-1.881019 -1.838142 -0.277133 -0.577350 -0.577351 -0.577350
-1.993610 -1.725551 -0.277133 -0.577350 -0.577351 -0.577350
-1.881019 -1.725551 -0.389724 -0.577350 -0.577351 -0.577350
-1.881019 0.327451 -0.277133 -0.577350 0.577350 -0.577350
-1.881019 0.214860 -0.389724 -0.577350 0.577350 -0.577350
-1.993610 0.214860 -0.277133 -0.577350 0.577350 -0.577350
-1.881019 -1.838142 0.279901 -0.577350 -0.577351 0.577350
-1.881019 -1.725551 0.392491 -0.577350 -0.577351 0.577350
-1.993610 -1.725551 0.279901 -0.577350 -0.577351 0.577350
-1.881019 0.327451 0.279901 -0.577350 0.577350 0.577350
-1.993610 0.214860 0.279901 -0.577350 0.577350 0.577350
-1.881019 0.214860 0.392491 -0.577350 0.577350 0.577350
-1.323985 -1.838142 -0.277133 0.707107 -0.707107 0.000000
-1.211395 -1.725551 0.279901 0.707107 -0.707107 0.000000
-1.323985 -1.838142 0.279901 0.707107 -0.707107 0.000000
-1.323985 0.214860 -0.389724 0.707107 0.000000 -0.707107
-1.211395 -1.725551 -0.277133 0.707107 0.000000 -0.707107
-1.323985 -1.725551 -0.389724 0.707107 0.000000 -0.707107
-1.323985 0.327451 0.279901 0.707107 0.707106 0.000000
-1.211395 0.214860 -0.277133 0.707107 0.707106 0.000000
-1.323985 0.327451 -0.277133 0.707107 0.707106 0.000000
-1.323985 -1.725551 0.392491 0.707107 0.000000 0.707107
-1.211395 0.214860 0.279901 0.707107 0.000000 0.707107
-1.323985 0.214860 0.392491 0.707107 0.000000 0.707107
-1.323985 -1.838142 0.279901 0.000000 -0.707107 0.707106
-1.881019 -1.725551 0.392491 0.000000 -0.707107 0.707106
-1.881019 -1.838142 0.279901 0.000000 -0.707107 0.707106
-1.881019 0.327451 0.279901 0.000000 0.707107 0.707107
-1.323985 0.214860 0.392491 0.000000 0.707107 0.707107
-1.323985 0.327451 0.279901 0.000000 0.707107 0.707107
-1.993610 -1.725551 0.279901 -0.707107 0.000000 0.707107
-1.881019 0.214860 0.392491 -0.707107 0.000000 0.707107
-1.993610 0.214860 0.279901 -0.707107 0.000000 0.707107
-1.881019 -1.838142 0.279901 -0.707106 -0.707107 0.000000
-1.993610 -1.725551 -0.277133 -0.707106 -0.707107 0.000000
-1.881019 -1.838142 -0.277133 -0.707106 -0.707107 0.000000
-1.881019 0.327451 -0.277133 -0.707107 0.707107 0.000000
-1.993610 0.214860 0.279901 -0.707107 0.707107 0.000000
-1.881019 0.327451 0.279901 -0.707107 0.707107 0.000000
-1.881019 -1.725551 -0.389724 -0.707107 0.000000 -0.707107
-1.993610 0.214860 -0.277133 -0.707107 0.000000 -0.707107
-1.881019 0.214860 -0.389724 -0.707107 0.000000 -0.707107
-1.881019 -1.838142 -0.277133 0.000000 -0.707107 -0.707106
-1.323985 -1.725551 -0.389724 0.000000 -0.707107 -0.707106
-1.323985 -1.838142 -0.277133 0.000000 -0.707107 -0.707106
-1.323985 0.327451 -0.277133 0.000000 0.707107 -0.707107
-1.881019 0.214860 -0.389724 0.000000 0.707107 -0.707107
-1.881019 0.327451 -0.277133 0.000000 0.707107 -0.707107
-1.881019 -1.838142 0.279901 -0.000000 -1.000000 -0.000000
-1.323985 -1.838142 -0.277133 -0.000000 -1.000000 -0.000000
-1.323985 -1.838142 0.279901 -0.000000 -1.000000 -0.000000
1.859627 0.214861 -0.391117 0.000000 0.000000 -1.000000
1.190003 0.214861 -0.278527 -1.000000 0.000000 0.000000
1.859627 0.327451 -0.278527 0.000000 1.000000 0.000000
1.972218 0.214861 0.278507 1.000000 -0.000000 0.000000
1.302593 0.214861 0.391098 0.000000 0.000000 1.000000
1.972218 -1.725551 -0.278527 0.707107 -0.707107 0.000000
1.972218 0.214861 -0.278527 0.707107 0.000000 -0.707107
1.972218 0.214861 0.278507 0.707107 0.707107 -0.000000
1.972218 -1.725551 0.278507 0.707107 0.000000 0.707107
1.859627 -1.725551 0.391098 0.000000 -0.707107 0.707107
1.302593 0.214861 0.391098 0.000000 0.707107 0.707107
1.302593 -1.725551 0.391098 -0.707107 0.000000 0.707107
1.190003 -1.725551 0.278507 -0.707107 -0.707107 0.000000
1.190003 0.214861 -0.278527 -0.707107 0.707107 0.000000
1.190003 -1.725551 -0.278527 -0.707107 -0.000000 -0.707107
1.302593 -1.725551 -0.391117 -0.000000 -0.707107 -0.707107
1.859627 0.214861 -0.391117 0.000000 0.707107 -0.707107
1.302593 -1.838142 -0.278527 0.000000 -1.000000 0.000000
-1.323985 0.214860 -0.389724 0.000000 0.000000 -1.000000
-1.993610 0.214860 -0.277133 -1.000000 0.000000 0.000000
-1.323985 0.327451 -0.277133 0.000000 1.000000 0.000000
-1.211395 0.214860 0.279901 1.000000 -0.000000 0.000000
-1.881019 0.214860 0.392491 0.000000 0.000000 1.000000
-1.211395 -1.725551 -0.277133 0.707107 -0.707107 0.000000
-1.211395 0.214860 -0.277133 0.707107 0.000000 -0.707107
-1.211395 0.214860 0.279901 0.707107 0.707106 -0.000000
-1.211395 -1.725551 0.279901 0.707107 0.000000 0.707107
-1.323985 -1.725551 0.392491 0.000000 -0.707107 0.707106
-1.881019 0.214860 0.392491 0.000000 0.707107 0.707107
-1.881019 -1.725551 0.392491 -0.707107 0.000000 0.707107
-1.993610 -1.725551 0.279901 -0.707106 -0.707107 0.000000
-1.993610 0.214860 -0.277133 -0.707107 0.707107 0.000000
-1.993610 -1.725551 -0.277133 -0.707107 -0.000000 -0.707107
-1.881019 -1.725551 -0.389724 -0.000000 -0.707107 -0.707106
-1.323985 0.214860 -0.389724 0.000000 0.707107 -0.707107
-1.881019 -1.838142 -0.277133 0.000000 -1.000000 0.000000
3 0 1 2
3 3 4 5
3 6 7 8
3 9 10 11
3 12 13 14
3 15 16 17
3 18 19 20
3 21 22 23
3 24 25 26
3 27 28 29
3 30 31 32
3 33 34 35
3 36 37 38
3 39 40 41
3 42 43 44
3 45 46 47
3 48 49 50
3 51 52 53
3 54 55 56
3 57 58 59
3 60 61 62
3 63 64 65
3 66 67 68
3 69 70 71
3 72 73 74
3 75 76 77
3 78 79 80
3 81 82 83
3 84 85 86
3 87 88 89
3 90 91 92
3 93 94 95
3 96 97 98
3 99 100 101
3 102 103 104
3 105 106 107
3 108 109 110
3 111 112 113
3 114 115 116
3 117 118 119
3 120 121 122
3 123 124 125
3 126 127 128
3 129 130 131
3 132 133 134
3 135 136 137
3 138 139 140
3 141 142 143
3 144 145 146
3 147 148 149
3 150 151 152
3 153 154 155
3 0 156 1
3 3 157 4
3 6 158 7
3 9 159 10
3 12 160 13
3 39 161 40
3 42 162 43
3 45 163 46
3 48 164 49
3 51 165 52
3 54 166 55
3 57 167 58
3 60 168 61
3 63 169 64
3 66 170 67
3 69 171 70
3 72 172 73
3 75 173 76
3 78 174 79
3 81 175 82
3 84 176 85
3 87 177 88
3 90 178 91
3 117 179 118
3 120 180 121
3 123 181 124
3 126 182 127
3 129 183 130
3 132 184 133
3 135 185 136
3 138 186 139
3 141 187 142
3 144 188 145
3 147 189 148
3 150 190 151
3 153 191 154
