ply
format ascii 1.0
comment Created by Blender 2.91.2 - www.blender.org
element vertex 220
property float x
property float y
property float z
property float nx
property float ny
property float nz
element face 124
property list uchar uint vertex_indices
end_header
-0.712124 3.138767 -1.000000 0.000000 0.000000 -1.000000
0.712124 2.846691 -1.000000 0.000000 0.000000 -1.000000
-0.712124 2.846691 -1.000000 0.000000 0.000000 -1.000000
-1.000000 2.846691 0.358032 -1.000000 0.000000 0.000000
-1.000000 3.138767 -0.712124 -1.000000 0.000000 0.000000
-1.000000 2.846691 -0.712124 -1.000000 0.000000 0.000000
0.712124 3.426644 0.712124 -0.000000 1.000000 0.000000
-0.712124 3.426644 -0.712124 -0.000000 1.000000 0.000000
-0.712124 3.426644 0.712124 -0.000000 1.000000 0.000000
1.000000 3.138767 -0.712124 1.000000 -0.000000 0.000000
1.000000 2.846691 0.358032 1.000000 -0.000000 0.000000
1.000000 2.846691 -0.712124 1.000000 -0.000000 0.000000
0.712124 3.138767 0.846171 0.000000 -0.565493 0.824753
-0.712124 2.846691 0.645908 0.000000 -0.565493 0.824753
0.712124 2.846691 0.645908 0.000000 -0.565493 0.824753
0.712124 0.086069 -0.712124 0.577351 -0.577350 -0.577350
0.712124 0.373945 -1.000000 0.577351 -0.577350 -0.577350
1.000000 0.373945 -0.712124 0.577351 -0.577350 -0.577350
0.712124 3.138767 -1.000000 0.577350 0.577350 -0.577350
0.712124 3.426644 -0.712124 0.577350 0.577350 -0.577350
1.000000 3.138767 -0.712124 0.577350 0.577350 -0.577350
0.712124 0.086069 0.712124 0.650701 -0.320531 0.688366
1.000000 0.373945 0.574046 0.650701 -0.320531 0.688366
0.712124 0.373945 0.846171 0.650701 -0.320531 0.688366
0.712124 3.426644 0.712124 0.650701 0.320531 0.688367
0.712124 3.138767 0.846171 0.650701 0.320531 0.688367
1.000000 3.138767 0.574046 0.650701 0.320531 0.688367
-0.712124 0.086069 -0.712124 -0.577350 -0.577350 -0.577350
-1.000000 0.373945 -0.712124 -0.577350 -0.577350 -0.577350
-0.712124 0.373945 -1.000000 -0.577350 -0.577350 -0.577350
-0.712124 3.426644 -0.712124 -0.577350 0.577350 -0.577350
-0.712124 3.138767 -1.000000 -0.577350 0.577350 -0.577350
-1.000000 3.138767 -0.712124 -0.577350 0.577350 -0.577350
-0.712124 0.086069 0.712124 -0.650701 -0.320531 0.688366
-0.712124 0.373945 0.846171 -0.650701 -0.320531 0.688366
-1.000000 0.373945 0.574046 -0.650701 -0.320531 0.688366
-0.712124 3.426644 0.712124 -0.650701 0.320531 0.688367
-1.000000 3.138767 0.574046 -0.650701 0.320531 0.688367
-0.712124 3.138767 0.846171 -0.650701 0.320531 0.688367
0.712124 0.086069 -0.712124 0.707107 -0.707106 0.000000
1.000000 0.373945 0.574046 0.707107 -0.707106 0.000000
0.712124 0.086069 0.712124 0.707107 -0.707106 0.000000
0.712124 3.138767 -1.000000 0.707107 0.000000 -0.707107
1.000000 2.846691 -0.712124 0.707107 0.000000 -0.707107
0.712124 2.846691 -1.000000 0.707107 0.000000 -0.707107
0.712124 3.426644 -0.712124 0.707107 0.707107 -0.000000
1.000000 3.138767 0.574046 0.707107 0.707107 -0.000000
1.000000 3.138767 -0.712124 0.707107 0.707107 -0.000000
0.712124 0.621861 0.757323 0.677594 0.285888 0.677594
1.000000 0.373945 0.574046 0.677594 0.285888 0.677594
1.000000 0.621861 0.469447 0.677594 0.285888 0.677594
0.712124 0.086069 0.712124 0.000000 -0.422121 0.906540
-0.712124 0.373945 0.846171 0.000000 -0.422121 0.906540
-0.712124 0.086069 0.712124 0.000000 -0.422121 0.906540
-0.712124 3.426644 0.712124 0.000000 0.422121 0.906540
0.712124 3.138767 0.846171 0.000000 0.422121 0.906540
0.712124 3.426644 0.712124 0.000000 0.422121 0.906540
-1.000000 0.373945 0.574046 -0.677594 0.285888 0.677594
-0.712124 0.621861 0.757323 -0.677594 0.285888 0.677594
-1.000000 0.621861 0.469447 -0.677594 0.285888 0.677594
-0.712124 0.086069 -0.712124 -0.707107 -0.707107 0.000000
-1.000000 0.373945 0.574046 -0.707107 -0.707107 0.000000
-1.000000 0.373945 -0.712124 -0.707107 -0.707107 0.000000
-0.712124 3.426644 -0.712124 -0.707107 0.707107 0.000000
-1.000000 3.138767 0.574046 -0.707107 0.707107 0.000000
-0.712124 3.426644 0.712124 -0.707107 0.707107 0.000000
-0.712124 0.373945 -1.000000 -0.707107 0.000000 -0.707107
-1.000000 0.621861 -0.712124 -0.707107 0.000000 -0.707107
-0.712124 0.621861 -1.000000 -0.707107 0.000000 -0.707107
-0.712124 0.086069 -0.712124 0.000000 -0.707107 -0.707107
0.712124 0.373945 -1.000000 0.000000 -0.707107 -0.707107
0.712124 0.086069 -0.712124 0.000000 -0.707107 -0.707107
0.712124 3.426644 -0.712124 0.000000 0.707107 -0.707107
-0.712124 3.138767 -1.000000 0.000000 0.707107 -0.707107
-0.712124 3.426644 -0.712124 0.000000 0.707107 -0.707107
-0.712124 0.086069 0.712124 -0.000000 -1.000000 -0.000000
0.712124 0.086069 -0.712124 -0.000000 -1.000000 -0.000000
0.712124 0.086069 0.712124 -0.000000 -1.000000 -0.000000
-0.712124 1.010014 -1.000000 -0.707107 0.000000 -0.707107
-1.000000 2.760011 -0.712124 -0.707107 0.000000 -0.707107
-0.712124 2.760011 -1.000000 -0.707107 0.000000 -0.707107
-1.000000 2.760011 -0.362674 -0.703452 -0.101548 0.703452
-0.712124 1.010014 -0.327422 -0.703452 -0.101548 0.703452
-0.712124 2.760011 -0.074798 -0.703452 -0.101548 0.703452
0.712124 1.010014 -0.327422 0.703452 -0.101548 0.703452
1.000000 2.760011 -0.362674 0.703452 -0.101548 0.703452
0.712124 2.760011 -0.074798 0.703452 -0.101548 0.703452
0.712124 1.010014 -1.000000 0.707107 0.000000 -0.707107
1.000000 0.664411 -0.712124 0.707107 0.000000 -0.707107
0.712124 0.664411 -1.000000 0.707107 0.000000 -0.707107
0.712124 1.010014 -0.327422 0.000000 -0.000000 1.000000
-0.712124 0.664411 -0.327422 0.000000 -0.000000 1.000000
0.712124 0.664411 -0.327422 0.000000 -0.000000 1.000000
1.000000 1.010014 -0.712124 1.000000 -0.000000 0.000000
1.000000 0.664411 -0.615298 1.000000 -0.000000 0.000000
1.000000 0.664411 -0.712124 1.000000 -0.000000 0.000000
-1.000000 1.010014 -0.615298 -1.000000 0.000000 0.000000
-1.000000 0.664411 -0.712124 -1.000000 0.000000 0.000000
-1.000000 0.664411 -0.615298 -1.000000 0.000000 0.000000
-0.712124 1.010014 -1.000000 0.000000 0.000000 -1.000000
0.712124 0.664411 -1.000000 0.000000 0.000000 -1.000000
-0.712124 0.664411 -1.000000 0.000000 0.000000 -1.000000
0.712124 2.846691 0.645908 0.614848 -0.445974 0.650438
1.000000 3.138767 0.574046 0.614848 -0.445974 0.650438
0.712124 3.138767 0.846171 0.614848 -0.445974 0.650438
-1.000000 3.138767 0.574046 -0.614848 -0.445974 0.650438
-0.712124 2.846691 0.645908 -0.614848 -0.445974 0.650438
-0.712124 3.138767 0.846171 -0.614848 -0.445974 0.650438
-0.712124 2.846691 -1.000000 -0.707107 0.000000 -0.707107
-1.000000 3.138767 -0.712124 -0.707107 0.000000 -0.707107
-0.712124 3.138767 -1.000000 -0.707107 0.000000 -0.707107
1.000000 2.760011 -0.712124 0.707107 0.000000 -0.707107
0.712124 2.760011 -1.000000 0.707107 0.000000 -0.707107
0.712124 2.846691 0.645908 0.000000 -0.992845 0.119411
-0.712124 2.760011 -0.074798 0.000000 -0.992845 0.119411
0.712124 2.760011 -0.074798 0.000000 -0.992845 0.119411
1.000000 2.760011 -0.362674 1.000000 -0.000000 0.000000
1.000000 2.760011 -0.712124 1.000000 -0.000000 0.000000
-1.000000 2.760011 -0.362674 -1.000000 0.000000 0.000000
-1.000000 2.760011 -0.712124 -1.000000 0.000000 0.000000
0.712124 2.760011 -1.000000 0.000000 0.000000 -1.000000
-0.712124 2.760011 -1.000000 0.000000 0.000000 -1.000000
-0.712124 0.621861 -1.000000 0.000000 0.000000 -1.000000
0.712124 0.373945 -1.000000 0.000000 0.000000 -1.000000
-0.712124 0.373945 -1.000000 0.000000 0.000000 -1.000000
-1.000000 0.621861 0.469447 -1.000000 0.000000 -0.000000
-1.000000 0.373945 -0.712124 -1.000000 0.000000 -0.000000
-1.000000 0.373945 0.574046 -1.000000 0.000000 -0.000000
1.000000 0.373945 -0.712124 1.000000 0.000000 0.000000
1.000000 0.621861 0.469447 1.000000 0.000000 0.000000
1.000000 0.373945 0.574046 1.000000 0.000000 0.000000
0.712124 0.621861 0.757323 0.000000 0.337368 0.941373
-0.712124 0.373945 0.846171 0.000000 0.337368 0.941373
0.712124 0.373945 0.846171 0.000000 0.337368 0.941373
0.712124 0.621861 -1.000000 0.707107 0.000000 -0.707107
1.000000 0.373945 -0.712124 0.707107 0.000000 -0.707107
0.712124 0.373945 -1.000000 0.707107 0.000000 -0.707107
-1.000000 0.664411 -0.712124 -0.707107 0.000000 -0.707107
-0.712124 0.664411 -1.000000 -0.707107 0.000000 -0.707107
-1.000000 0.621861 0.469447 -0.039166 0.998465 0.039166
-0.712124 0.664411 -0.327422 -0.039166 0.998465 0.039166
-1.000000 0.664411 -0.615298 -0.039166 0.998465 0.039166
0.712124 0.664411 -0.327422 0.039166 0.998465 0.039166
1.000000 0.621861 0.469447 0.039166 0.998465 0.039166
1.000000 0.664411 -0.615298 0.039166 0.998465 0.039166
0.712124 0.664411 -0.327422 0.707107 0.000000 0.707107
1.000000 1.010014 -0.615298 0.707107 0.000000 0.707107
0.712124 1.010014 -0.327422 0.707107 0.000000 0.707107
-1.000000 0.664411 -0.615298 -0.707107 0.000000 0.707107
-0.712124 1.010014 -0.327422 -0.707107 0.000000 0.707107
-1.000000 1.010014 -0.615298 -0.707107 0.000000 0.707107
-1.000000 1.010014 -0.712124 -0.707107 0.000000 -0.707107
0.712124 0.621861 -1.000000 0.000000 0.000000 -1.000000
-1.000000 0.621861 -0.712124 -1.000000 0.000000 0.000000
1.000000 0.621861 -0.712124 1.000000 0.000000 0.000000
0.712124 0.664411 -0.327422 0.000000 0.999232 0.039196
-0.712124 0.621861 0.757323 0.000000 0.999232 0.039196
0.712124 0.621861 0.757323 0.000000 0.999232 0.039196
1.000000 0.621861 -0.712124 0.707107 0.000000 -0.707107
0.712124 1.010014 -1.000000 0.000000 0.000000 -1.000000
-1.000000 1.010014 -0.712124 -1.000000 0.000000 0.000000
1.000000 1.010014 -0.615298 1.000000 -0.000000 0.000000
0.712124 2.760011 -0.074798 0.000000 -0.142876 0.989741
-0.712124 1.010014 -0.327422 0.000000 -0.142876 0.989741
0.712124 1.010014 -0.327422 0.000000 -0.142876 0.989741
1.000000 1.010014 -0.712124 0.707107 0.000000 -0.707107
0.712124 2.760011 -0.074798 0.118568 -0.985841 0.118568
1.000000 2.846691 0.358032 0.118568 -0.985841 0.118568
0.712124 2.846691 0.645908 0.118568 -0.985841 0.118568
-1.000000 2.846691 0.358032 -0.118568 -0.985841 0.118568
-0.712124 2.760011 -0.074798 -0.118568 -0.985841 0.118568
-0.712124 2.846691 0.645908 -0.118568 -0.985841 0.118568
-1.000000 2.846691 -0.712124 -0.707107 0.000000 -0.707107
0.712124 3.138767 -1.000000 0.000000 0.000000 -1.000000
-1.000000 3.138767 0.574046 -1.000000 -0.000000 0.000000
0.712124 3.426644 -0.712124 0.000000 1.000000 0.000000
1.000000 3.138767 0.574046 1.000000 -0.000000 0.000000
-0.712124 3.138767 0.846171 0.000000 -0.565493 0.824753
1.000000 0.373945 -0.712124 0.707107 -0.707106 0.000000
1.000000 3.138767 -0.712124 0.707107 0.000000 -0.707107
0.712124 3.426644 0.712124 0.707107 0.707107 0.000000
0.712124 0.621861 0.757323 0.664770 0.252030 0.703251
0.712124 0.373945 0.846171 0.664770 0.252030 0.703251
1.000000 0.373945 0.574046 0.664770 0.252030 0.703251
0.712124 0.373945 0.846171 0.000000 -0.422121 0.906540
-0.712124 3.138767 0.846171 0.000000 0.422121 0.906540
-1.000000 0.373945 0.574046 -0.664770 0.252030 0.703251
-0.712124 0.373945 0.846171 -0.664770 0.252030 0.703251
-0.712124 0.621861 0.757323 -0.664770 0.252030 0.703251
-0.712124 0.086069 -0.712124 -0.707107 -0.707106 -0.000000
-0.712124 0.086069 0.712124 -0.707107 -0.707106 -0.000000
-1.000000 0.373945 0.574046 -0.707107 -0.707106 -0.000000
-1.000000 3.138767 -0.712124 -0.707107 0.707107 0.000000
-1.000000 0.373945 -0.712124 -0.707107 -0.000000 -0.707107
-0.712124 0.373945 -1.000000 -0.000000 -0.707107 -0.707107
0.712124 3.138767 -1.000000 0.000000 0.707107 -0.707107
-0.712124 0.086069 -0.712124 0.000000 -1.000000 0.000000
-1.000000 2.760011 -0.362674 -0.703451 -0.101548 0.703452
-1.000000 1.010014 -0.615298 -0.703451 -0.101548 0.703452
-0.712124 1.010014 -0.327422 -0.703451 -0.101548 0.703452
0.712124 1.010014 -0.327422 0.703451 -0.101548 0.703452
1.000000 1.010014 -0.615298 0.703451 -0.101548 0.703452
1.000000 2.760011 -0.362674 0.703451 -0.101548 0.703452
-0.712124 1.010014 -0.327422 0.000000 0.000000 1.000000
0.712124 2.846691 0.645908 0.626595 -0.463419 0.626595
1.000000 2.846691 0.358032 0.626595 -0.463419 0.626595
1.000000 3.138767 0.574046 0.626595 -0.463419 0.626595
-1.000000 3.138767 0.574046 -0.626595 -0.463419 0.626595
-1.000000 2.846691 0.358032 -0.626595 -0.463419 0.626595
-0.712124 2.846691 0.645908 -0.626595 -0.463419 0.626595
-0.712124 2.846691 0.645908 0.000000 -0.992845 0.119411
-0.712124 0.621861 0.757323 -0.000000 0.337368 0.941373
-0.712124 0.621861 0.757323 -0.039166 0.998465 0.039166
0.712124 0.621861 0.757323 0.039166 0.998465 0.039166
1.000000 0.664411 -0.615298 0.707107 0.000000 0.707107
-0.712124 0.664411 -0.327422 -0.707107 0.000000 0.707107
-0.712124 0.664411 -0.327422 -0.000000 0.999232 0.039196
-0.712124 2.760011 -0.074798 0.000000 -0.142876 0.989741
1.000000 2.760011 -0.362674 0.118568 -0.985841 0.118568
-1.000000 2.760011 -0.362674 -0.118568 -0.985841 0.118568
3 0 1 2
3 3 4 5
3 6 7 8
3 9 10 11
3 12 13 14
3 15 16 17
3 18 19 20
3 21 22 23
3 24 25 26
3 27 28 29
3 30 31 32
3 33 34 35
3 36 37 38
3 39 40 41
3 42 43 44
3 45 46 47
3 48 49 50
3 51 52 53
3 54 55 56
3 57 58 59
3 60 61 62
3 63 64 65
3 66 67 68
3 69 70 71
3 72 73 74
3 75 76 77
3 78 79 80
3 81 82 83
3 84 85 86
3 87 88 89
3 90 91 92
3 93 94 95
3 96 97 98
3 99 100 101
3 102 103 104
3 105 106 107
3 108 109 110
3 44 111 112
3 113 114 115
3 11 116 117
3 118 5 119
3 2 120 121
3 122 123 124
3 125 126 127
3 128 129 130
3 131 132 133
3 134 135 136
3 68 137 138
3 139 140 141
3 142 143 144
3 145 146 147
3 148 149 150
3 138 151 78
3 101 152 122
3 98 153 125
3 154 94 129
3 155 156 157
3 89 158 134
3 121 159 99
3 96 119 160
3 117 161 93
3 162 163 164
3 112 165 87
3 166 167 168
3 169 170 171
3 80 172 108
3 0 173 1
3 3 174 4
3 6 175 7
3 9 176 10
3 12 177 13
3 39 178 40
3 42 179 43
3 45 180 46
3 181 182 183
3 51 184 52
3 54 185 55
3 186 187 188
3 189 190 191
3 63 192 64
3 66 193 67
3 69 194 70
3 72 195 73
3 75 196 76
3 78 151 79
3 197 198 199
3 200 201 202
3 87 165 88
3 90 203 91
3 93 161 94
3 96 160 97
3 99 159 100
3 204 205 206
3 207 208 209
3 108 172 109
3 44 43 111
3 113 210 114
3 11 10 116
3 118 3 5
3 2 1 120
3 122 152 123
3 125 153 126
3 128 154 129
3 131 211 132
3 134 158 135
3 68 67 137
3 139 212 140
3 142 213 143
3 145 214 146
3 148 215 149
3 138 137 151
3 101 100 152
3 98 97 153
3 154 95 94
3 155 216 156
3 89 88 158
3 121 120 159
3 96 118 119
3 117 116 161
3 162 217 163
3 112 111 165
3 166 218 167
3 169 219 170
3 80 79 172
