ply
format ascii 1.0
comment Created by Blender 2.91.2 - www.blender.org
element vertex 196
property float x
property float y
property float z
property float nx
property float ny
property float nz
element face 88
property list uchar uint vertex_indices
end_header
0.160718 2.619836 -0.033326 0.000000 0.131046 -0.991376
0.801629 0.811637 -0.272345 0.000000 0.131046 -0.991376
0.160718 0.811637 -0.272345 0.000000 0.131046 -0.991376
0.031174 0.779079 0.737129 -1.000000 0.000000 0.000000
0.031174 2.619836 0.096218 -1.000000 0.000000 0.000000
0.031174 0.811637 -0.142801 -1.000000 0.000000 0.000000
0.801629 2.801253 0.515396 0.000000 0.992430 -0.122812
0.160718 2.749380 0.096218 0.000000 0.992430 -0.122812
0.160718 2.801253 0.515396 0.000000 0.992430 -0.122812
0.931174 2.619836 0.096218 1.000000 -0.000000 -0.000000
0.931174 0.779079 0.737129 1.000000 -0.000000 -0.000000
0.931174 0.811637 -0.142801 1.000000 -0.000000 -0.000000
0.801629 2.671709 0.644940 0.000000 0.116360 0.993207
0.160718 0.779079 0.866674 0.000000 0.116360 0.993207
0.801629 0.779079 0.866674 0.000000 0.116360 0.993207
0.801629 0.682093 -0.142801 0.577350 -0.577350 -0.577350
0.801629 0.811637 -0.272345 0.577350 -0.577350 -0.577350
0.931174 0.811637 -0.142801 0.577350 -0.577350 -0.577350
0.801629 2.619836 -0.033326 0.577350 0.577350 -0.577350
0.801629 2.749380 0.096218 0.577350 0.577350 -0.577350
0.931174 2.619836 0.096218 0.577350 0.577350 -0.577350
0.801629 0.649535 0.737129 0.577350 -0.577350 0.577350
0.931174 0.779079 0.737129 0.577350 -0.577350 0.577350
0.801629 0.779079 0.866674 0.577350 -0.577350 0.577350
0.801629 2.801253 0.515396 0.577350 0.577350 0.577350
0.801629 2.671709 0.644940 0.577350 0.577350 0.577350
0.931174 2.671709 0.515396 0.577350 0.577350 0.577350
0.160718 0.682093 -0.142801 -0.577350 -0.577350 -0.577350
0.031174 0.811637 -0.142801 -0.577350 -0.577350 -0.577350
0.160718 0.811637 -0.272345 -0.577350 -0.577350 -0.577350
0.160718 2.749380 0.096218 -0.577350 0.577350 -0.577350
0.160718 2.619836 -0.033326 -0.577350 0.577350 -0.577350
0.031174 2.619836 0.096218 -0.577350 0.577350 -0.577350
0.160718 0.649535 0.737129 -0.577350 -0.577350 0.577350
0.160718 0.779079 0.866674 -0.577350 -0.577350 0.577350
0.031174 0.779079 0.737129 -0.577350 -0.577350 0.577350
0.160718 2.801253 0.515396 -0.577350 0.577350 0.577350
0.031174 2.671709 0.515396 -0.577350 0.577350 0.577350
0.160718 2.671709 0.644940 -0.577350 0.577350 0.577350
0.801629 0.682093 -0.142801 0.706865 -0.706865 -0.026155
0.931174 0.779079 0.737129 0.706865 -0.706865 -0.026155
0.801629 0.649535 0.737129 0.706865 -0.706865 -0.026155
0.801629 2.619836 -0.033326 0.704038 0.093064 -0.704038
0.931174 0.811637 -0.142801 0.704038 0.093064 -0.704038
0.801629 0.811637 -0.272345 0.704038 0.093064 -0.704038
0.801629 2.749380 0.096218 0.704415 0.704415 -0.087171
0.931174 2.671709 0.515396 0.704415 0.704415 -0.087171
0.931174 2.619836 0.096218 0.704415 0.704415 -0.087171
0.801629 2.671709 0.644940 0.704693 0.082559 0.704693
0.931174 0.779079 0.737129 0.704693 0.082559 0.704693
0.931174 2.671709 0.515396 0.704693 0.082559 0.704693
0.801629 0.649535 0.737129 0.000000 -0.707107 0.707107
0.160718 0.779079 0.866674 0.000000 -0.707107 0.707107
0.160718 0.649535 0.737129 0.000000 -0.707107 0.707107
0.160718 2.801253 0.515396 0.000000 0.707107 0.707107
0.801629 2.671709 0.644940 0.000000 0.707107 0.707107
0.801629 2.801253 0.515396 0.000000 0.707107 0.707107
0.031174 0.779079 0.737129 -0.704693 0.082559 0.704693
0.160718 2.671709 0.644940 -0.704693 0.082559 0.704693
0.031174 2.671709 0.515396 -0.704693 0.082559 0.704693
0.160718 0.682093 -0.142801 -0.706865 -0.706865 -0.026155
0.031174 0.779079 0.737129 -0.706865 -0.706865 -0.026155
0.031174 0.811637 -0.142801 -0.706865 -0.706865 -0.026155
0.160718 2.749380 0.096218 -0.704415 0.704415 -0.087171
0.031174 2.671709 0.515396 -0.704415 0.704415 -0.087171
0.160718 2.801253 0.515396 -0.704415 0.704415 -0.087171
0.160718 2.619836 -0.033326 -0.704038 0.093064 -0.704038
0.031174 0.811637 -0.142801 -0.704038 0.093064 -0.704038
0.031174 2.619836 0.096218 -0.704038 0.093064 -0.704038
0.160718 0.682093 -0.142801 0.000000 -0.707106 -0.707107
0.801629 0.811637 -0.272345 0.000000 -0.707106 -0.707107
0.801629 0.682093 -0.142801 0.000000 -0.707106 -0.707107
0.801629 2.749380 0.096218 0.000000 0.707107 -0.707107
0.160718 2.619836 -0.033326 0.000000 0.707107 -0.707107
0.160718 2.749380 0.096218 0.000000 0.707107 -0.707107
0.160718 0.649535 0.737129 0.000000 -0.999316 -0.036976
0.801629 0.682093 -0.142801 0.000000 -0.999316 -0.036976
0.801629 0.649535 0.737129 0.000000 -0.999316 -0.036976
-0.797482 2.619836 -0.033326 0.000000 0.131046 -0.991376
-0.156571 0.811638 -0.272345 0.000000 0.131046 -0.991376
-0.797482 0.811638 -0.272345 0.000000 0.131046 -0.991376
-0.927026 0.779079 0.737129 -1.000000 0.000000 0.000000
-0.927026 2.619836 0.096218 -1.000000 0.000000 0.000000
-0.927026 0.811638 -0.142801 -1.000000 0.000000 0.000000
-0.156571 2.801254 0.515396 0.000000 0.992430 -0.122813
-0.797482 2.749380 0.096218 0.000000 0.992430 -0.122813
-0.797482 2.801254 0.515396 0.000000 0.992430 -0.122813
-0.027026 2.619836 0.096218 1.000000 -0.000000 -0.000000
-0.027026 0.779079 0.737129 1.000000 -0.000000 -0.000000
-0.027026 0.811638 -0.142801 1.000000 -0.000000 -0.000000
-0.156571 2.671709 0.644940 0.000000 0.116360 0.993207
-0.797482 0.779079 0.866674 0.000000 0.116360 0.993207
-0.156571 0.779079 0.866674 0.000000 0.116360 0.993207
-0.156571 0.682093 -0.142801 0.577350 -0.577350 -0.577350
-0.156571 0.811638 -0.272345 0.577350 -0.577350 -0.577350
-0.027026 0.811638 -0.142801 0.577350 -0.577350 -0.577350
-0.156571 2.619836 -0.033326 0.577350 0.577351 -0.577350
-0.156571 2.749380 0.096218 0.577350 0.577351 -0.577350
-0.027026 2.619836 0.096218 0.577350 0.577351 -0.577350
-0.156571 0.649535 0.737129 0.577350 -0.577350 0.577350
-0.027026 0.779079 0.737129 0.577350 -0.577350 0.577350
-0.156571 0.779079 0.866674 0.577350 -0.577350 0.577350
-0.156571 2.801254 0.515396 0.577350 0.577350 0.577350
-0.156571 2.671709 0.644940 0.577350 0.577350 0.577350
-0.027026 2.671709 0.515396 0.577350 0.577350 0.577350
-0.797482 0.682093 -0.142801 -0.577350 -0.577350 -0.577351
-0.927026 0.811638 -0.142801 -0.577350 -0.577350 -0.577351
-0.797482 0.811638 -0.272345 -0.577350 -0.577350 -0.577351
-0.797482 2.749380 0.096218 -0.577350 0.577351 -0.577350
-0.797482 2.619836 -0.033326 -0.577350 0.577351 -0.577350
-0.927026 2.619836 0.096218 -0.577350 0.577351 -0.577350
-0.797482 0.649535 0.737129 -0.577350 -0.577350 0.577350
-0.797482 0.779079 0.866674 -0.577350 -0.577350 0.577350
-0.927026 0.779079 0.737129 -0.577350 -0.577350 0.577350
-0.797482 2.801254 0.515396 -0.577350 0.577350 0.577350
-0.927026 2.671709 0.515396 -0.577350 0.577350 0.577350
-0.797482 2.671709 0.644940 -0.577350 0.577350 0.577350
-0.156571 0.682093 -0.142801 0.706865 -0.706865 -0.026155
-0.027026 0.779079 0.737129 0.706865 -0.706865 -0.026155
-0.156571 0.649535 0.737129 0.706865 -0.706865 -0.026155
-0.156571 2.619836 -0.033326 0.704038 0.093064 -0.704038
-0.027026 0.811638 -0.142801 0.704038 0.093064 -0.704038
-0.156571 0.811638 -0.272345 0.704038 0.093064 -0.704038
-0.156571 2.749380 0.096218 0.704415 0.704416 -0.087171
-0.027026 2.671709 0.515396 0.704415 0.704416 -0.087171
-0.027026 2.619836 0.096218 0.704415 0.704416 -0.087171
-0.156571 2.671709 0.644940 0.704693 0.082559 0.704693
-0.027026 0.779079 0.737129 0.704693 0.082559 0.704693
-0.027026 2.671709 0.515396 0.704693 0.082559 0.704693
-0.156571 0.649535 0.737129 0.000000 -0.707107 0.707107
-0.797482 0.779079 0.866674 0.000000 -0.707107 0.707107
-0.797482 0.649535 0.737129 0.000000 -0.707107 0.707107
-0.797482 2.801254 0.515396 0.000000 0.707107 0.707107
-0.156571 2.671709 0.644940 0.000000 0.707107 0.707107
-0.156571 2.801254 0.515396 0.000000 0.707107 0.707107
-0.927026 0.779079 0.737129 -0.704693 0.082559 0.704693
-0.797482 2.671709 0.644940 -0.704693 0.082559 0.704693
-0.927026 2.671709 0.515396 -0.704693 0.082559 0.704693
-0.797482 0.682093 -0.142801 -0.706865 -0.706865 -0.026155
-0.927026 0.779079 0.737129 -0.706865 -0.706865 -0.026155
-0.927026 0.811638 -0.142801 -0.706865 -0.706865 -0.026155
-0.797482 2.749380 0.096218 -0.704415 0.704415 -0.087171
-0.927026 2.671709 0.515396 -0.704415 0.704415 -0.087171
-0.797482 2.801254 0.515396 -0.704415 0.704415 -0.087171
-0.797482 2.619836 -0.033326 -0.704038 0.093064 -0.704038
-0.927026 0.811638 -0.142801 -0.704038 0.093064 -0.704038
-0.927026 2.619836 0.096218 -0.704038 0.093064 -0.704038
-0.797482 0.682093 -0.142801 0.000000 -0.707106 -0.707107
-0.156571 0.811638 -0.272345 0.000000 -0.707106 -0.707107
-0.156571 0.682093 -0.142801 0.000000 -0.707106 -0.707107
-0.156571 2.749380 0.096218 0.000000 0.707107 -0.707106
-0.797482 2.619836 -0.033326 0.000000 0.707107 -0.707106
-0.797482 2.749380 0.096218 0.000000 0.707107 -0.707106
-0.797482 0.649535 0.737129 0.000000 -0.999316 -0.036976
-0.156571 0.682093 -0.142801 0.000000 -0.999316 -0.036976
-0.156571 0.649535 0.737129 0.000000 -0.999316 -0.036976
0.801629 2.619836 -0.033326 0.000000 0.131046 -0.991376
0.031174 2.671709 0.515396 -1.000000 0.000000 0.000000
0.801629 2.749380 0.096218 0.000000 0.992430 -0.122812
0.931174 2.671709 0.515396 1.000000 0.000000 0.000000
0.160718 2.671709 0.644940 -0.000000 0.116360 0.993207
0.931174 0.811637 -0.142801 0.706865 -0.706865 -0.026155
0.931174 2.619836 0.096218 0.704038 0.093064 -0.704038
0.801629 2.801253 0.515396 0.704415 0.704415 -0.087171
0.801629 0.779079 0.866674 0.704693 0.082559 0.704693
0.801629 0.779079 0.866674 0.000000 -0.707107 0.707107
0.160718 2.671709 0.644940 0.000000 0.707107 0.707107
0.160718 0.779079 0.866674 -0.704693 0.082559 0.704693
0.160718 0.649535 0.737129 -0.706865 -0.706865 -0.026155
0.031174 2.619836 0.096218 -0.704415 0.704415 -0.087171
0.160718 0.811637 -0.272345 -0.704038 0.093064 -0.704038
0.160718 0.811637 -0.272345 -0.000000 -0.707106 -0.707107
0.801629 2.619836 -0.033326 0.000000 0.707107 -0.707107
0.160718 0.682093 -0.142801 -0.000000 -0.999316 -0.036976
-0.156571 2.619836 -0.033326 0.000000 0.131046 -0.991376
-0.927026 2.671709 0.515396 -1.000000 0.000000 0.000000
-0.156571 2.749380 0.096218 0.000000 0.992430 -0.122813
-0.027026 2.671709 0.515396 1.000000 0.000000 0.000000
-0.797482 2.671709 0.644940 -0.000000 0.116360 0.993207
-0.027026 0.811638 -0.142801 0.706865 -0.706865 -0.026155
-0.027026 2.619836 0.096218 0.704038 0.093064 -0.704038
-0.156571 2.749380 0.096218 0.704415 0.704415 -0.087171
-0.156571 2.801254 0.515396 0.704415 0.704415 -0.087171
-0.027026 2.671709 0.515396 0.704415 0.704415 -0.087171
-0.156571 0.779079 0.866674 0.704693 0.082559 0.704693
-0.156571 0.779079 0.866674 0.000000 -0.707107 0.707107
-0.797482 2.671709 0.644940 0.000000 0.707107 0.707107
-0.797482 0.779079 0.866674 -0.704693 0.082559 0.704693
-0.797482 0.649535 0.737129 -0.706865 -0.706865 -0.026155
-0.797482 2.749380 0.096218 -0.704414 0.704416 -0.087171
-0.927026 2.619836 0.096218 -0.704414 0.704416 -0.087171
-0.927026 2.671709 0.515396 -0.704414 0.704416 -0.087171
-0.797482 0.811638 -0.272345 -0.704038 0.093064 -0.704038
-0.797482 0.811638 -0.272345 -0.000000 -0.707106 -0.707107
-0.156571 2.619836 -0.033326 0.000000 0.707107 -0.707106
-0.797482 0.682093 -0.142801 -0.000000 -0.999316 -0.036976
3 0 1 2
3 3 4 5
3 6 7 8
3 9 10 11
3 12 13 14
3 15 16 17
3 18 19 20
3 21 22 23
3 24 25 26
3 27 28 29
3 30 31 32
3 33 34 35
3 36 37 38
3 39 40 41
3 42 43 44
3 45 46 47
3 48 49 50
3 51 52 53
3 54 55 56
3 57 58 59
3 60 61 62
3 63 64 65
3 66 67 68
3 69 70 71
3 72 73 74
3 75 76 77
3 78 79 80
3 81 82 83
3 84 85 86
3 87 88 89
3 90 91 92
3 93 94 95
3 96 97 98
3 99 100 101
3 102 103 104
3 105 106 107
3 108 109 110
3 111 112 113
3 114 115 116
3 117 118 119
3 120 121 122
3 123 124 125
3 126 127 128
3 129 130 131
3 132 133 134
3 135 136 137
3 138 139 140
3 141 142 143
3 144 145 146
3 147 148 149
3 150 151 152
3 153 154 155
3 0 156 1
3 3 157 4
3 6 158 7
3 9 159 10
3 12 160 13
3 39 161 40
3 42 162 43
3 45 163 46
3 48 164 49
3 51 165 52
3 54 166 55
3 57 167 58
3 60 168 61
3 63 169 64
3 66 170 67
3 69 171 70
3 72 172 73
3 75 173 76
3 78 174 79
3 81 175 82
3 84 176 85
3 87 177 88
3 90 178 91
3 117 179 118
3 120 180 121
3 181 182 183
3 126 184 127
3 129 185 130
3 132 186 133
3 135 187 136
3 138 188 139
3 189 190 191
3 144 192 145
3 147 193 148
3 150 194 151
3 153 195 154
