ply
format ascii 1.0
comment Created by Blender 2.91.2 - www.blender.org
element vertex 100
property float x
property float y
property float z
property float nx
property float ny
property float nz
element face 44
property list uchar uint vertex_indices
end_header
1.508904 -2.745994 -0.110545 0.000000 -0.113381 -0.993552
1.729609 -1.991651 -0.196628 0.000000 -0.113381 -0.993552
1.668318 -2.745994 -0.110545 0.000000 -0.113381 -0.993552
1.390589 -1.991651 0.142392 -0.993550 -0.113395 -0.000000
1.476683 -2.745994 -0.078323 -0.993550 -0.113395 -0.000000
1.476683 -2.745994 0.081090 -0.993550 -0.113395 -0.000000
1.729609 -1.934648 0.142392 -0.000000 1.000000 0.000000
1.447592 -1.934648 -0.139626 -0.000000 1.000000 0.000000
1.447592 -1.934648 0.142392 -0.000000 1.000000 0.000000
1.786612 -1.991651 -0.139626 0.993553 -0.113368 0.000000
1.700539 -2.745994 0.081090 0.993553 -0.113368 0.000000
1.700539 -2.745994 -0.078323 0.993553 -0.113368 0.000000
1.729609 -1.991651 0.199395 0.000000 -0.113381 0.993552
1.508904 -2.745994 0.113312 0.000000 -0.113381 0.993552
1.668318 -2.745994 0.113312 0.000000 -0.113381 0.993552
1.668318 -2.778215 -0.078323 0.577348 -0.577353 -0.577350
1.668318 -2.745994 -0.110545 0.577348 -0.577353 -0.577350
1.700539 -2.745994 -0.078323 0.577348 -0.577353 -0.577350
1.729609 -1.991651 -0.196628 0.577350 0.577351 -0.577350
1.729609 -1.934648 -0.139626 0.577350 0.577351 -0.577350
1.786612 -1.991651 -0.139626 0.577350 0.577351 -0.577350
1.668318 -2.778215 0.081090 0.577348 -0.577353 0.577350
1.700539 -2.745994 0.081090 0.577348 -0.577353 0.577350
1.668318 -2.745994 0.113312 0.577348 -0.577353 0.577350
1.729609 -1.934648 0.142392 0.577350 0.577351 0.577350
1.729609 -1.991651 0.199395 0.577350 0.577351 0.577350
1.786612 -1.991651 0.142392 0.577350 0.577351 0.577350
1.508904 -2.778215 -0.078323 -0.577350 -0.577352 -0.577349
1.476683 -2.745994 -0.078323 -0.577350 -0.577352 -0.577349
1.508904 -2.745994 -0.110545 -0.577350 -0.577352 -0.577349
1.447592 -1.934648 -0.139626 -0.577349 0.577351 -0.577350
1.447592 -1.991651 -0.196628 -0.577349 0.577351 -0.577350
1.390589 -1.991651 -0.139626 -0.577349 0.577351 -0.577350
1.508904 -2.778215 0.081090 -0.577350 -0.577352 0.577349
1.508904 -2.745994 0.113312 -0.577350 -0.577352 0.577349
1.476683 -2.745994 0.081090 -0.577350 -0.577352 0.577349
1.447592 -1.934648 0.142392 -0.577349 0.577351 0.577350
1.390589 -1.991651 0.142392 -0.577349 0.577351 0.577350
1.447592 -1.991651 0.199395 -0.577349 0.577351 0.577350
1.668318 -2.778215 -0.078323 0.707104 -0.707109 0.000000
1.700539 -2.745994 0.081090 0.707104 -0.707109 0.000000
1.668318 -2.778215 0.081090 0.707104 -0.707109 0.000000
1.668318 -2.745994 -0.110545 0.700454 -0.136847 -0.700455
1.786612 -1.991651 -0.139626 0.700454 -0.136847 -0.700455
1.700539 -2.745994 -0.078323 0.700454 -0.136847 -0.700455
1.729609 -1.934648 0.142392 0.707106 0.707108 0.000000
1.786612 -1.991651 -0.139626 0.707106 0.707108 0.000000
1.729609 -1.934648 -0.139626 0.707106 0.707108 0.000000
1.668318 -2.745994 0.113312 0.700454 -0.136847 0.700455
1.786612 -1.991651 0.142392 0.700454 -0.136847 0.700455
1.729609 -1.991651 0.199395 0.700454 -0.136847 0.700455
1.668318 -2.778215 0.081090 0.000000 -0.707109 0.707105
1.508904 -2.745994 0.113312 0.000000 -0.707109 0.707105
1.508904 -2.778215 0.081090 0.000000 -0.707109 0.707105
1.447592 -1.934648 0.142392 0.000000 0.707107 0.707106
1.729609 -1.991651 0.199395 0.000000 0.707107 0.707106
1.729609 -1.934648 0.142392 0.000000 0.707107 0.707106
1.476683 -2.745994 0.081090 -0.700452 -0.136866 0.700454
1.447592 -1.991651 0.199395 -0.700452 -0.136866 0.700454
1.390589 -1.991651 0.142392 -0.700452 -0.136866 0.700454
1.508904 -2.778215 0.081090 -0.707106 -0.707108 0.000000
1.476683 -2.745994 -0.078323 -0.707106 -0.707108 0.000000
1.508904 -2.778215 -0.078323 -0.707106 -0.707108 0.000000
1.447592 -1.934648 -0.139626 -0.707105 0.707108 0.000000
1.390589 -1.991651 0.142392 -0.707105 0.707108 0.000000
1.447592 -1.934648 0.142392 -0.707105 0.707108 0.000000
1.447592 -1.991651 -0.196628 -0.700452 -0.136866 -0.700453
1.476683 -2.745994 -0.078323 -0.700452 -0.136866 -0.700453
1.390589 -1.991651 -0.139626 -0.700452 -0.136866 -0.700453
1.508904 -2.778215 -0.078323 0.000000 -0.707109 -0.707105
1.668318 -2.745994 -0.110545 0.000000 -0.707109 -0.707105
1.668318 -2.778215 -0.078323 0.000000 -0.707109 -0.707105
1.729609 -1.934648 -0.139626 0.000000 0.707107 -0.707106
1.447592 -1.991651 -0.196628 0.000000 0.707107 -0.707106
1.447592 -1.934648 -0.139626 0.000000 0.707107 -0.707106
1.508904 -2.778215 0.081090 -0.000000 -1.000000 -0.000000
1.668318 -2.778215 -0.078323 -0.000000 -1.000000 -0.000000
1.668318 -2.778215 0.081090 -0.000000 -1.000000 -0.000000
1.447592 -1.991651 -0.196628 -0.000000 -0.113381 -0.993552
1.390589 -1.991651 -0.139626 -0.993550 -0.113395 0.000000
1.729609 -1.934648 -0.139626 0.000000 1.000000 0.000000
1.786612 -1.991651 0.142392 0.993553 -0.113368 0.000000
1.447592 -1.991651 0.199395 0.000000 -0.113381 0.993552
1.700539 -2.745994 -0.078323 0.707104 -0.707109 0.000000
1.729609 -1.991651 -0.196628 0.700454 -0.136847 -0.700455
1.786612 -1.991651 0.142392 0.707106 0.707108 -0.000000
1.700539 -2.745994 0.081090 0.700454 -0.136847 0.700455
1.668318 -2.745994 0.113312 0.000000 -0.707109 0.707105
1.447592 -1.991651 0.199395 0.000000 0.707107 0.707106
1.476683 -2.745994 0.081090 -0.700453 -0.136866 0.700452
1.508904 -2.745994 0.113312 -0.700453 -0.136866 0.700452
1.447592 -1.991651 0.199395 -0.700453 -0.136866 0.700452
1.476683 -2.745994 0.081090 -0.707106 -0.707108 0.000000
1.390589 -1.991651 -0.139626 -0.707105 0.707108 0.000000
1.447592 -1.991651 -0.196628 -0.700453 -0.136866 -0.700452
1.508904 -2.745994 -0.110545 -0.700453 -0.136866 -0.700452
1.476683 -2.745994 -0.078323 -0.700453 -0.136866 -0.700452
1.508904 -2.745994 -0.110545 -0.000000 -0.707109 -0.707105
1.729609 -1.991651 -0.196628 0.000000 0.707107 -0.707106
1.508904 -2.778215 -0.078323 0.000000 -1.000000 0.000000
3 0 1 2
3 3 4 5
3 6 7 8
3 9 10 11
3 12 13 14
3 15 16 17
3 18 19 20
3 21 22 23
3 24 25 26
3 27 28 29
3 30 31 32
3 33 34 35
3 36 37 38
3 39 40 41
3 42 43 44
3 45 46 47
3 48 49 50
3 51 52 53
3 54 55 56
3 57 58 59
3 60 61 62
3 63 64 65
3 66 67 68
3 69 70 71
3 72 73 74
3 75 76 77
3 0 78 1
3 3 79 4
3 6 80 7
3 9 81 10
3 12 82 13
3 39 83 40
3 42 84 43
3 45 85 46
3 48 86 49
3 51 87 52
3 54 88 55
3 89 90 91
3 60 92 61
3 63 93 64
3 94 95 96
3 69 97 70
3 72 98 73
3 75 99 76
