ply
format ascii 1.0
comment Created by Blender 2.91.2 - www.blender.org
element vertex 240
property float x
property float y
property float z
property float nx
property float ny
property float nz
element face 80
property list uchar uint vertex_indices
end_header
0.000000 -6.297893 0.000000 -0.188559 -0.792264 -0.580313
-1.221246 -5.357329 -0.887277 -0.188559 -0.792264 -0.580313
0.466465 -5.357331 -1.435656 -0.188559 -0.792264 -0.580313
-2.077722 -2.816541 -1.509536 -0.866413 -0.373282 -0.331646
-1.221246 -5.357329 -0.887277 -0.866413 -0.373282 -0.331646
-2.442499 -3.311028 0.000000 -0.866413 -0.373282 -0.331646
0.000000 -6.297893 0.000000 0.493648 -0.792262 -0.358653
0.466465 -5.357331 -1.435656 0.493648 -0.792262 -0.358653
1.509549 -5.357313 0.000000 0.493648 -0.792262 -0.358653
0.000000 -6.297893 0.000000 0.493648 -0.792262 0.358653
1.509549 -5.357313 0.000000 0.493648 -0.792262 0.358653
0.466465 -5.357331 1.435656 0.493648 -0.792262 0.358653
0.000000 -6.297893 0.000000 -0.188559 -0.792264 0.580313
0.466465 -5.357331 1.435656 -0.188559 -0.792264 0.580313
-1.221246 -5.357329 0.887277 -0.188559 -0.792264 0.580313
-2.077722 -2.816541 -1.509536 -0.946849 -0.157596 -0.280429
-2.442499 -3.311028 0.000000 -0.946849 -0.157596 -0.280429
-2.730810 0.000000 -0.887280 -0.946849 -0.157596 -0.280429
0.793604 -2.816543 -2.442502 -0.025891 -0.157597 -0.987164
-0.754786 -3.311039 -2.322947 -0.025891 -0.157597 -0.987164
0.000000 0.000000 -2.871339 -0.025891 -0.157597 -0.987164
2.568201 -2.816516 0.000000 0.930850 -0.157596 -0.329669
1.976025 -3.311030 -1.435661 0.930850 -0.157596 -0.329669
2.730810 0.000000 -0.887280 0.930850 -0.157596 -0.329669
0.793604 -2.816543 2.442502 0.601180 -0.157598 0.783419
1.976025 -3.311030 1.435661 0.601180 -0.157598 0.783419
1.687732 0.000000 2.322962 0.601180 -0.157598 0.783419
-2.077722 -2.816541 1.509536 -0.559303 -0.157597 0.813845
-0.754786 -3.311039 2.322947 -0.559303 -0.157597 0.813845
-1.687732 0.000000 2.322962 -0.559303 -0.157597 0.813845
-2.077722 -2.816541 -1.509536 -0.807674 -0.057637 -0.586806
-2.730810 0.000000 -0.887280 -0.807674 -0.057637 -0.586806
-1.687732 0.000000 -2.322962 -0.807674 -0.057637 -0.586806
0.793604 -2.816543 -2.442502 0.308503 -0.057638 -0.949475
0.000000 0.000000 -2.871339 0.308503 -0.057638 -0.949475
1.687732 0.000000 -2.322962 0.308503 -0.057638 -0.949475
2.568201 -2.816516 0.000000 0.998338 -0.057638 0.000000
2.730810 0.000000 -0.887280 0.998338 -0.057638 0.000000
2.730810 0.000000 0.887280 0.998338 -0.057638 0.000000
0.793604 -2.816543 2.442502 0.308503 -0.057638 0.949475
1.687732 0.000000 2.322962 0.308503 -0.057638 0.949475
0.000000 0.000000 2.871339 0.308503 -0.057638 0.949475
-2.077722 -2.816541 1.509536 -0.807674 -0.057637 0.586806
-1.687732 0.000000 2.322962 -0.807674 -0.057637 0.586806
-2.730810 0.000000 0.887280 -0.807674 -0.057637 0.586806
-0.793604 2.816543 -2.442502 -0.506004 0.373282 -0.777573
-1.976025 3.311030 -1.435661 -0.506004 0.373282 -0.777573
-0.466465 5.357330 -1.435656 -0.506004 0.373282 -0.777573
2.077722 2.816541 -1.509536 0.583156 0.373282 -0.721519
0.754786 3.311039 -2.322947 0.583156 0.373282 -0.721519
1.221246 5.357329 -0.887277 0.583156 0.373282 -0.721519
2.077722 2.816541 1.509536 0.866413 0.373282 0.331646
2.442499 3.311028 0.000000 0.866413 0.373282 0.331646
1.221246 5.357329 0.887277 0.866413 0.373282 0.331646
-0.793604 2.816543 2.442502 -0.047675 0.373283 0.926492
0.754786 3.311039 2.322947 -0.047675 0.373283 0.926492
-0.466465 5.357330 1.435656 -0.047675 0.373283 0.926492
-2.568201 2.816516 0.000000 -0.895882 0.373280 0.240954
-1.976025 3.311030 1.435661 -0.895882 0.373280 0.240954
-1.509549 5.357313 0.000000 -0.895882 0.373280 0.240954
-1.509549 5.357313 0.000000 -0.493648 0.792262 0.358653
-0.466465 5.357330 1.435656 -0.493648 0.792262 0.358653
0.000000 6.297893 0.000000 -0.493648 0.792262 0.358653
-1.509549 5.357313 0.000000 -0.694700 0.512483 0.504732
-1.976025 3.311030 1.435661 -0.694700 0.512483 0.504732
-0.466465 5.357330 1.435656 -0.694700 0.512483 0.504732
-1.976025 3.311030 1.435661 -0.506004 0.373282 0.777573
-0.793604 2.816543 2.442502 -0.506004 0.373282 0.777573
-0.466465 5.357330 1.435656 -0.506004 0.373282 0.777573
-0.466465 5.357330 1.435656 0.188559 0.792264 0.580313
1.221246 5.357329 0.887277 0.188559 0.792264 0.580313
0.000000 6.297893 0.000000 0.188559 0.792264 0.580313
-0.466465 5.357330 1.435656 0.265356 0.512483 0.816668
0.754786 3.311039 2.322947 0.265356 0.512483 0.816668
1.221246 5.357329 0.887277 0.265356 0.512483 0.816668
0.754786 3.311039 2.322947 0.583156 0.373282 0.721518
2.077722 2.816541 1.509536 0.583156 0.373282 0.721518
1.221246 5.357329 0.887277 0.583156 0.373282 0.721518
1.221246 5.357329 0.887277 0.610177 0.792265 -0.000000
1.221246 5.357329 -0.887277 0.610177 0.792265 -0.000000
0.000000 6.297893 0.000000 0.610177 0.792265 -0.000000
1.221246 5.357329 0.887277 0.858699 0.512480 0.000000
2.442499 3.311028 0.000000 0.858699 0.512480 0.000000
1.221246 5.357329 -0.887277 0.858699 0.512480 0.000000
2.442499 3.311028 0.000000 0.866413 0.373282 -0.331646
2.077722 2.816541 -1.509536 0.866413 0.373282 -0.331646
1.221246 5.357329 -0.887277 0.866413 0.373282 -0.331646
1.221246 5.357329 -0.887277 0.188559 0.792264 -0.580313
-0.466465 5.357330 -1.435656 0.188559 0.792264 -0.580313
0.000000 6.297893 0.000000 0.188559 0.792264 -0.580313
1.221246 5.357329 -0.887277 0.265356 0.512483 -0.816668
0.754786 3.311039 -2.322947 0.265356 0.512483 -0.816668
-0.466465 5.357330 -1.435656 0.265356 0.512483 -0.816668
0.754786 3.311039 -2.322947 -0.047675 0.373282 -0.926492
-0.793604 2.816543 -2.442502 -0.047675 0.373282 -0.926492
-0.466465 5.357330 -1.435656 -0.047675 0.373282 -0.926492
-0.466465 5.357330 -1.435656 -0.493648 0.792262 -0.358653
-1.509549 5.357313 0.000000 -0.493648 0.792262 -0.358653
0.000000 6.297893 0.000000 -0.493648 0.792262 -0.358653
-0.466465 5.357330 -1.435656 -0.694700 0.512483 -0.504732
-1.976025 3.311030 -1.435661 -0.694700 0.512483 -0.504732
-1.509549 5.357313 0.000000 -0.694700 0.512483 -0.504732
-1.976025 3.311030 -1.435661 -0.895882 0.373280 -0.240954
-2.568201 2.816516 0.000000 -0.895882 0.373280 -0.240954
-1.509549 5.357313 0.000000 -0.895882 0.373280 -0.240954
-2.730810 0.000000 0.887280 -0.930850 0.157596 0.329669
-1.976025 3.311030 1.435661 -0.930850 0.157596 0.329669
-2.568201 2.816516 0.000000 -0.930850 0.157596 0.329669
-2.730810 0.000000 0.887280 -0.805969 0.086746 0.585567
-1.687732 0.000000 2.322962 -0.805969 0.086746 0.585567
-1.976025 3.311030 1.435661 -0.805969 0.086746 0.585567
-1.687732 0.000000 2.322962 -0.601180 0.157598 0.783419
-0.793604 2.816543 2.442502 -0.601180 0.157598 0.783419
-1.976025 3.311030 1.435661 -0.601180 0.157598 0.783419
0.000000 0.000000 2.871339 0.025891 0.157597 0.987164
0.754786 3.311039 2.322947 0.025891 0.157597 0.987164
-0.793604 2.816543 2.442502 0.025891 0.157597 0.987164
0.000000 0.000000 2.871339 0.307852 0.086747 0.947471
1.687732 0.000000 2.322962 0.307852 0.086747 0.947471
0.754786 3.311039 2.322947 0.307852 0.086747 0.947471
1.687732 0.000000 2.322962 0.559303 0.157597 0.813845
2.077722 2.816541 1.509536 0.559303 0.157597 0.813845
0.754786 3.311039 2.322947 0.559303 0.157597 0.813845
2.730810 0.000000 0.887280 0.946849 0.157596 0.280429
2.442499 3.311028 0.000000 0.946849 0.157596 0.280429
2.077722 2.816541 1.509536 0.946849 0.157596 0.280429
2.730810 0.000000 0.887280 0.996230 0.086748 -0.000000
2.730810 0.000000 -0.887280 0.996230 0.086748 -0.000000
2.442499 3.311028 0.000000 0.996230 0.086748 -0.000000
2.730810 0.000000 -0.887280 0.946849 0.157596 -0.280429
2.077722 2.816541 -1.509536 0.946849 0.157596 -0.280429
2.442499 3.311028 0.000000 0.946849 0.157596 -0.280429
1.687732 0.000000 -2.322962 0.559303 0.157597 -0.813845
0.754786 3.311039 -2.322947 0.559303 0.157597 -0.813845
2.077722 2.816541 -1.509536 0.559303 0.157597 -0.813845
1.687732 0.000000 -2.322962 0.307852 0.086747 -0.947471
0.000000 0.000000 -2.871339 0.307852 0.086747 -0.947471
0.754786 3.311039 -2.322947 0.307852 0.086747 -0.947471
0.000000 0.000000 -2.871339 0.025891 0.157597 -0.987164
-0.793604 2.816543 -2.442502 0.025891 0.157597 -0.987164
0.754786 3.311039 -2.322947 0.025891 0.157597 -0.987164
-1.687732 0.000000 -2.322962 -0.601180 0.157598 -0.783419
-1.976025 3.311030 -1.435661 -0.601180 0.157598 -0.783419
-0.793604 2.816543 -2.442502 -0.601180 0.157598 -0.783419
-1.687732 0.000000 -2.322962 -0.805969 0.086746 -0.585567
-2.730810 0.000000 -0.887280 -0.805969 0.086746 -0.585567
-1.976025 3.311030 -1.435661 -0.805969 0.086746 -0.585567
-2.730810 0.000000 -0.887280 -0.930850 0.157596 -0.329669
-2.568201 2.816516 0.000000 -0.930850 0.157596 -0.329669
-1.976025 3.311030 -1.435661 -0.930850 0.157596 -0.329669
-1.687732 0.000000 2.322962 -0.308503 0.057638 0.949475
0.000000 0.000000 2.871339 -0.308503 0.057638 0.949475
-0.793604 2.816543 2.442502 -0.308503 0.057638 0.949475
-1.687732 0.000000 2.322962 -0.307852 -0.086747 0.947471
-0.754786 -3.311039 2.322947 -0.307852 -0.086747 0.947471
0.000000 0.000000 2.871339 -0.307852 -0.086747 0.947471
-0.754786 -3.311039 2.322947 -0.025891 -0.157597 0.987164
0.793604 -2.816543 2.442502 -0.025891 -0.157597 0.987164
0.000000 0.000000 2.871339 -0.025891 -0.157597 0.987164
1.687732 0.000000 2.322962 0.807674 0.057637 0.586806
2.730810 0.000000 0.887280 0.807674 0.057637 0.586806
2.077722 2.816541 1.509536 0.807674 0.057637 0.586806
1.687732 0.000000 2.322962 0.805969 -0.086746 0.585567
1.976025 -3.311030 1.435661 0.805969 -0.086746 0.585567
2.730810 0.000000 0.887280 0.805969 -0.086746 0.585567
1.976025 -3.311030 1.435661 0.930850 -0.157596 0.329669
2.568201 -2.816516 0.000000 0.930850 -0.157596 0.329669
2.730810 0.000000 0.887280 0.930850 -0.157596 0.329669
2.730810 0.000000 -0.887280 0.807674 0.057637 -0.586806
1.687732 0.000000 -2.322962 0.807674 0.057637 -0.586806
2.077722 2.816541 -1.509536 0.807674 0.057637 -0.586806
2.730810 0.000000 -0.887280 0.805969 -0.086746 -0.585567
1.976025 -3.311030 -1.435661 0.805969 -0.086746 -0.585567
1.687732 0.000000 -2.322962 0.805969 -0.086746 -0.585567
1.976025 -3.311030 -1.435661 0.601180 -0.157598 -0.783419
0.793604 -2.816543 -2.442502 0.601180 -0.157598 -0.783419
1.687732 0.000000 -2.322962 0.601180 -0.157598 -0.783419
0.000000 0.000000 -2.871339 -0.308503 0.057638 -0.949475
-1.687732 0.000000 -2.322962 -0.308503 0.057638 -0.949475
-0.793604 2.816543 -2.442502 -0.308503 0.057638 -0.949475
0.000000 0.000000 -2.871339 -0.307852 -0.086747 -0.947471
-0.754786 -3.311039 -2.322947 -0.307852 -0.086747 -0.947471
-1.687732 0.000000 -2.322962 -0.307852 -0.086747 -0.947471
-0.754786 -3.311039 -2.322947 -0.559303 -0.157597 -0.813845
-2.077722 -2.816541 -1.509536 -0.559303 -0.157597 -0.813845
-1.687732 0.000000 -2.322962 -0.559303 -0.157597 -0.813845
-2.730810 0.000000 -0.887280 -0.998338 0.057638 0.000000
-2.730810 0.000000 0.887280 -0.998338 0.057638 0.000000
-2.568201 2.816516 0.000000 -0.998338 0.057638 0.000000
-2.730810 0.000000 -0.887280 -0.996230 -0.086748 0.000000
-2.442499 -3.311028 0.000000 -0.996230 -0.086748 0.000000
-2.730810 0.000000 0.887280 -0.996230 -0.086748 0.000000
-2.442499 -3.311028 0.000000 -0.946849 -0.157596 0.280429
-2.077722 -2.816541 1.509536 -0.946849 -0.157596 0.280429
-2.730810 0.000000 0.887280 -0.946849 -0.157596 0.280429
-1.221246 -5.357329 0.887277 -0.583156 -0.373282 0.721519
-0.754786 -3.311039 2.322947 -0.583156 -0.373282 0.721519
-2.077722 -2.816541 1.509536 -0.583156 -0.373282 0.721519
-1.221246 -5.357329 0.887277 -0.265357 -0.512483 0.816668
0.466465 -5.357331 1.435656 -0.265357 -0.512483 0.816668
-0.754786 -3.311039 2.322947 -0.265357 -0.512483 0.816668
0.466465 -5.357331 1.435656 0.047675 -0.373282 0.926492
0.793604 -2.816543 2.442502 0.047675 -0.373282 0.926492
-0.754786 -3.311039 2.322947 0.047675 -0.373282 0.926492
0.466465 -5.357331 1.435656 0.506004 -0.373282 0.777573
1.976025 -3.311030 1.435661 0.506004 -0.373282 0.777573
0.793604 -2.816543 2.442502 0.506004 -0.373282 0.777573
0.466465 -5.357331 1.435656 0.694700 -0.512483 0.504731
1.509549 -5.357313 0.000000 0.694700 -0.512483 0.504731
1.976025 -3.311030 1.435661 0.694700 -0.512483 0.504731
1.509549 -5.357313 0.000000 0.895882 -0.373280 0.240954
2.568201 -2.816516 0.000000 0.895882 -0.373280 0.240954
1.976025 -3.311030 1.435661 0.895882 -0.373280 0.240954
1.509549 -5.357313 0.000000 0.895882 -0.373280 -0.240954
1.976025 -3.311030 -1.435661 0.895882 -0.373280 -0.240954
2.568201 -2.816516 0.000000 0.895882 -0.373280 -0.240954
1.509549 -5.357313 0.000000 0.694700 -0.512483 -0.504731
0.466465 -5.357331 -1.435656 0.694700 -0.512483 -0.504731
1.976025 -3.311030 -1.435661 0.694700 -0.512483 -0.504731
0.466465 -5.357331 -1.435656 0.506004 -0.373282 -0.777573
0.793604 -2.816543 -2.442502 0.506004 -0.373282 -0.777573
1.976025 -3.311030 -1.435661 0.506004 -0.373282 -0.777573
-2.442499 -3.311028 0.000000 -0.866413 -0.373282 0.331646
-1.221246 -5.357329 0.887277 -0.866413 -0.373282 0.331646
-2.077722 -2.816541 1.509536 -0.866413 -0.373282 0.331646
-2.442499 -3.311028 0.000000 -0.858699 -0.512480 -0.000000
-1.221246 -5.357329 -0.887277 -0.858699 -0.512480 -0.000000
-1.221246 -5.357329 0.887277 -0.858699 -0.512480 -0.000000
-1.221246 -5.357329 -0.887277 -0.610177 -0.792265 0.000000
0.000000 -6.297893 0.000000 -0.610177 -0.792265 0.000000
-1.221246 -5.357329 0.887277 -0.610177 -0.792265 0.000000
0.466465 -5.357331 -1.435656 0.047675 -0.373282 -0.926492
-0.754786 -3.311039 -2.322947 0.047675 -0.373282 -0.926492
0.793604 -2.816543 -2.442502 0.047675 -0.373282 -0.926492
0.466465 -5.357331 -1.435656 -0.265357 -0.512483 -0.816668
-1.221246 -5.357329 -0.887277 -0.265357 -0.512483 -0.816668
-0.754786 -3.311039 -2.322947 -0.265357 -0.512483 -0.816668
-1.221246 -5.357329 -0.887277 -0.583156 -0.373282 -0.721518
-2.077722 -2.816541 -1.509536 -0.583156 -0.373282 -0.721518
-0.754786 -3.311039 -2.322947 -0.583156 -0.373282 -0.721518
3 0 1 2
3 3 4 5
3 6 7 8
3 9 10 11
3 12 13 14
3 15 16 17
3 18 19 20
3 21 22 23
3 24 25 26
3 27 28 29
3 30 31 32
3 33 34 35
3 36 37 38
3 39 40 41
3 42 43 44
3 45 46 47
3 48 49 50
3 51 52 53
3 54 55 56
3 57 58 59
3 60 61 62
3 63 64 65
3 66 67 68
3 69 70 71
3 72 73 74
3 75 76 77
3 78 79 80
3 81 82 83
3 84 85 86
3 87 88 89
3 90 91 92
3 93 94 95
3 96 97 98
3 99 100 101
3 102 103 104
3 105 106 107
3 108 109 110
3 111 112 113
3 114 115 116
3 117 118 119
3 120 121 122
3 123 124 125
3 126 127 128
3 129 130 131
3 132 133 134
3 135 136 137
3 138 139 140
3 141 142 143
3 144 145 146
3 147 148 149
3 150 151 152
3 153 154 155
3 156 157 158
3 159 160 161
3 162 163 164
3 165 166 167
3 168 169 170
3 171 172 173
3 174 175 176
3 177 178 179
3 180 181 182
3 183 184 185
3 186 187 188
3 189 190 191
3 192 193 194
3 195 196 197
3 198 199 200
3 201 202 203
3 204 205 206
3 207 208 209
3 210 211 212
3 213 214 215
3 216 217 218
3 219 220 221
3 222 223 224
3 225 226 227
3 228 229 230
3 231 232 233
3 234 235 236
3 237 238 239
